<svg width="84" height="61" viewBox="0 0 84 61" fill="none" xmlns="http://www.w3.org/2000/svg">
<defs><clipPath id="bgClip"><path d="M42 0C50.3616 0 57.8005 3.94739 62.5566 10.0801C63.0333 10.0461 63.5146 10.0283 64 10.0283C75.0457 10.0283 84 18.9826 84 30.0283C84 41.074 75.0457 50.0283 64 50.0283C63.5 50.0283 63.0044 50.0087 62.5137 49.9727C57.7557 56.0743 50.3369 60 42 60C33.6628 60 26.2433 56.0746 21.4854 49.9727C20.9949 50.0087 20.4996 50.0283 20 50.0283C8.95431 50.0283 -4.84294e-07 41.074 0 30.0283C1.80968e-05 18.9826 8.95432 10.0283 20 10.0283C20.485 10.0283 20.966 10.0461 21.4424 10.0801C26.1985 3.94712 33.6381 0 42 0Z"/></clipPath></defs><path d="M42 0C50.3616 0 57.8005 3.94739 62.5566 10.0801C63.0333 10.0461 63.5146 10.0283 64 10.0283C75.0457 10.0283 84 18.9826 84 30.0283C84 41.074 75.0457 50.0283 64 50.0283C63.5 50.0283 63.0044 50.0087 62.5137 49.9727C57.7557 56.0743 50.3369 60 42 60C33.6628 60 26.2433 56.0746 21.4854 49.9727C20.9949 50.0087 20.4996 50.0283 20 50.0283C8.95431 50.0283 -4.84294e-07 41.074 0 30.0283C1.80968e-05 18.9826 8.95432 10.0283 20 10.0283C20.485 10.0283 20.966 10.0461 21.4424 10.0801C26.1985 3.94712 33.6381 0 42 0Z" fill="#fffcf9" stroke="currentColor" stroke-width="2" clip-path="url(#bgClip)" stroke-linejoin="round"/>
<path d="M23.8516 48.1279C28.0658 53.5325 34.627 57 42 57V60C33.6628 60 26.2433 56.0746 21.4854 49.9727C20.9949 50.0087 20.4996 50.0283 20 50.0283V47.0283C20.421 47.0283 20.8427 47.0115 21.2656 46.9805L22.8652 46.8633L23.8516 48.1279ZM62.7334 46.9805C63.1563 47.0115 63.5785 47.0283 64 47.0283V50.0283C63.5 50.0283 63.0044 50.0087 62.5137 49.9727C57.7557 56.0743 50.3369 60 42 60V57C49.3726 57 55.9331 53.5324 60.1475 48.1279L61.1338 46.8633L62.7334 46.9805ZM81 30.0283C81 20.6395 73.3888 13.0283 64 13.0283C63.588 13.0283 63.1781 13.0432 62.7705 13.0723L61.1699 13.1865L60.1855 11.9189C55.973 6.48727 49.395 3 42 3C34.6046 3 28.0259 6.48719 23.8135 11.9189L22.8301 13.1865L21.2295 13.0723C20.8217 13.0432 20.4116 13.0283 20 13.0283C10.6112 13.0283 3.00002 20.6395 3 30.0283C3 39.4172 10.6112 47.0283 20 47.0283V50.0283C8.95431 50.0283 -4.84294e-07 41.074 0 30.0283C1.80968e-05 18.9826 8.95432 10.0283 20 10.0283C20.485 10.0283 20.966 10.0461 21.4424 10.0801C26.1985 3.94712 33.6381 0 42 0C50.3616 0 57.8005 3.94739 62.5566 10.0801C63.0333 10.0461 63.5146 10.0283 64 10.0283C75.0457 10.0283 84 18.9826 84 30.0283C84 41.074 75.0457 50.0283 64 50.0283V47.0283C73.3888 47.0283 81 39.4172 81 30.0283Z" fill="currentColor"/>
<path d="M60.4798 34.0734C61.3158 34.0734 61.7998 34.5134 61.7998 35.3494V37.4614C61.7998 38.3194 61.3378 38.7594 60.4798 38.7594H53.8358C52.9778 38.7594 52.5158 38.3194 52.5158 37.4614V35.3494C52.5158 34.5134 52.9998 34.0734 53.8358 34.0734H60.4798ZM54.9798 35.8334C54.8478 35.8334 54.7598 35.9214 54.7598 36.0754V36.7574C54.7598 36.9114 54.8478 36.9994 54.9798 36.9994H59.3358C59.4678 36.9994 59.5558 36.9114 59.5558 36.7574V36.0974C59.5558 35.9434 59.4678 35.8334 59.3358 35.8334H54.9798ZM59.5558 25.9774V27.1654H55.0238L54.8478 25.9774H59.5558ZM59.5558 24.3054V25.4934H55.0238L54.8478 24.3054H59.5558ZM51.1078 25.9774V27.1654H46.5758L46.3998 25.9774H51.1078ZM51.1078 24.3054V25.4934H46.5758L46.3998 24.3054H51.1078ZM46.3558 29.4314C46.2238 29.4314 46.1358 29.5194 46.1358 29.6514V30.2454C46.1358 30.3774 46.2238 30.4654 46.3558 30.4654H48.9958C49.1278 30.4654 49.2158 30.3774 49.2158 30.2454V29.6514C49.2158 29.5194 49.1278 29.4314 48.9958 29.4314H46.3558ZM59.9738 31.7854C60.9638 31.8954 62.0418 31.9394 63.1858 31.8954L62.6138 33.8314C60.5458 33.7654 58.7858 33.5014 57.2678 33.0174C55.6838 33.5454 53.8358 33.8534 51.8558 33.9634L51.3058 32.0274C52.5378 32.0054 53.6598 31.9174 54.6498 31.7634C54.2538 31.4774 53.8798 31.1914 53.5058 30.8394C53.0878 31.1034 52.6258 31.3234 52.0758 31.5654L51.5258 29.6514C52.8458 29.1234 53.7038 28.4854 54.0998 27.4294H56.2558C56.1678 27.6714 56.0798 27.9134 55.9698 28.1334H60.5458C61.3598 28.1334 61.8878 28.6174 61.8878 29.4094C61.8878 29.7174 61.7998 30.0694 61.6678 30.2894C61.2278 30.8394 60.6558 31.3454 59.9738 31.7854ZM57.1798 31.1694C58.1698 30.8174 58.9178 30.3774 59.3798 29.8934H54.7598C54.6498 30.0254 54.5178 30.1354 54.3858 30.2454H55.2218C55.7718 30.5974 56.4318 30.9054 57.1798 31.1694ZM54.1878 23.7774V27.1214H51.8118V23.7774H45.9818C45.8498 23.7774 45.7618 23.8654 45.7618 23.9974V26.7254H43.6498V23.4474C43.6498 22.5014 44.1998 21.9734 45.1898 21.9734H51.8118V21.5114H44.7278L44.5078 19.7074H61.4698V21.5114H54.1878V21.9734H60.8098C61.7998 21.9734 62.3498 22.5014 62.3498 23.4474V26.6374H60.2378V23.9974C60.2378 23.8654 60.1498 23.7774 60.0178 23.7774H54.1878ZM49.0618 36.3174L51.6578 36.0094V37.9894L43.2538 38.9794L43.0558 36.9994L43.9798 36.8894V33.0394H46.0478V36.6474L46.9938 36.5374V32.1374H45.2778C44.4858 32.1374 44.0678 31.7194 44.0678 30.9274V28.9694C44.0678 28.1994 44.5078 27.7594 45.2778 27.7594H50.0738C50.8438 27.7594 51.2838 28.1994 51.2838 28.9694V30.9274C51.2838 31.7194 50.8658 32.1374 50.0738 32.1374H49.0618V33.1934H51.1518V34.9094H49.0618V36.3174Z" fill="currentColor"/>
<path d="M36.8518 39.6174C33.0458 38.6714 29.2618 38.1874 24.9278 37.8134V35.5914C29.2618 35.9654 33.0458 36.4714 36.8518 37.3954V39.6174ZM35.7078 31.4114C37.0938 32.6874 38.8758 33.3914 41.0098 33.7654L40.4818 36.2074C38.4578 35.7894 36.6978 35.0414 35.2678 33.9854V35.6574C32.4518 35.1074 29.6358 34.6674 26.9958 34.4254V33.7874C25.6098 34.9094 23.8058 35.7674 21.5838 36.3174L20.9678 34.0074C23.3218 33.4134 24.9498 32.7094 26.2698 31.4114H21.6718L21.4518 29.5634H26.4898V28.5734H22.9258L22.7058 26.7254H26.4898V25.7574H24.0918L23.8718 23.9094H26.4898V23.0734H28.9978V23.9094H32.9138V23.0734H35.4218V23.9094H38.1278V25.7574H35.4218V26.7254H39.1838V28.5734H35.4218V29.5634H40.4598V31.4114H35.7078ZM34.5638 33.3914C33.9038 32.7974 33.3318 32.1374 32.8478 31.4114H29.1078C28.8878 31.7854 28.6238 32.1374 28.3158 32.4894C30.3398 32.6874 32.4518 32.9734 34.5638 33.3914ZM32.9138 29.5634V28.5734H28.9978V29.5634H32.9138ZM32.9138 26.7254V25.7574H28.9978V26.7254H32.9138ZM32.2538 20.6534H39.2058C40.1078 20.6534 40.7238 21.2694 40.7238 22.1714V24.7674H38.5238V23.0074C38.5238 22.8094 38.3918 22.6774 38.1938 22.6774H23.8278C23.6298 22.6774 23.4978 22.8094 23.4978 23.0074V25.0754H21.2978V22.1714C21.2978 21.2694 21.9138 20.6534 22.8158 20.6534H29.7018V19.3994H32.2538V20.6534Z" fill="currentColor"/>
</svg>
