<svg width="64" height="64" viewBox="0 0 64 64" fill="none" xmlns="http://www.w3.org/2000/svg">
<g clip-path="url(#clip0_681_3542)">
<path d="M54.0352 33.7285C54.3815 35.0807 54.612 36.53 54.5732 37.9521C52.4163 37.1324 51.253 35.677 50.4834 33.9951L54.0352 33.7285Z" fill="currentColor"/>
<path fill-rule="evenodd" clip-rule="evenodd" d="M32 0C49.6731 0 64 14.3269 64 32C64 49.6731 49.6731 64 32 64C14.3269 64 0 49.6731 0 32C0 14.3269 14.3269 0 32 0ZM32 3C28.9421 3 25.9951 3.47426 23.2275 4.35156C25.4795 5.02213 27.5804 5.86854 29.4121 6.97363C35.649 10.7364 39.1836 17.8309 40.4092 21.1162C45.0788 22.8675 47.0984 27.164 49.3574 29.8574C51.0183 31.8375 52.5753 32.5815 53.4121 32.7725L49.7129 33.0508L49.0361 33.1006L49.2852 33.7324C50.1457 35.9167 51.5429 37.9707 54.4951 38.9893C53.9845 42.9747 50.9958 46.4864 42.0098 46.6455C34.8762 45.8802 31.3408 41.5269 30.5186 37.8916L29.5439 38.1123C30.4293 42.0265 34.069 46.4761 41.0557 47.5303C43.2165 50.7839 44.6096 55.6497 45.1641 57.8457C54.5633 53.0488 61 43.2765 61 32C61 15.9837 48.0163 3 32 3ZM23.8164 26.1738C20.1688 25.2262 15.5583 24.7028 12.1152 24.9443C9.06214 25.1586 6.35262 26.0581 3.46582 26.7979C3.16013 28.4856 3 30.2241 3 32C3 41.1011 7.19392 49.2213 13.7529 54.5381C13.5592 54.3027 13.3763 54.0624 13.2061 53.8164C19.4243 52.3608 25.6608 44.5357 23.2031 34.3125C22.4547 31.0911 22.7854 28.0096 23.8164 26.1738ZM43.6172 42.5967H48.2041V41.5967H43.6172V42.5967ZM43.4961 39.8984L48.1924 40.5293L48.3252 39.5391L43.6289 38.9082L43.4961 39.8984ZM42.6777 30.8438C42.7061 31.1732 42.6937 31.5164 42.6328 31.8643C42.4673 32.8097 41.9838 33.6014 41.3457 34.1094C42.2242 34.2518 43.3154 34.356 43.5293 33.3936C43.5141 32.7336 43.7572 32.2288 42.6777 30.8438ZM38.627 28.4932C37.8346 28.3944 37.0058 28.4389 36.168 28.627C34.2857 29.0495 33.2898 30.3544 34.2695 31.624C34.5733 32.0176 35.9241 32.554 37.3506 33.0254C37.0843 32.4027 36.9875 31.663 37.1211 30.8994C37.3051 29.8483 37.881 28.9849 38.627 28.4932ZM13.1621 9.95215C12.1003 10.8602 11.1044 11.843 10.1836 12.8936C19.8859 13.5704 26.7815 17.5636 30.4863 21.1377C30.7177 21.0552 30.9519 20.9802 31.1875 20.9092C27.9878 17.2519 20.1876 12.8546 13.1621 9.95215Z" fill="currentColor"/>
</g>
<defs>
<clipPath id="clip0_681_3542">
<rect width="64" height="64" rx="32" fill="#fffcf9"/>
</clipPath>
</defs>
</svg>
